<?xml version="1.0" encoding="utf-8"?>
<svg version="1.1" xmlns:xlink="http://www.w3.org/1999/xlink" width="243px" height="199px" xmlns="http://www.w3.org/2000/svg">
  <g>
    <path d="M 0 0  L 243 0  L 243 199  L 0 199  L 0 0  " fill-rule="nonzero" fill="#cccccc" stroke="none" />
    <path d="M 14 14  L 229 14  L 229 185  L 14 185  L 14 14  " fill-rule="nonzero" fill="#ffffff" stroke="none" />
    <path d="M 141.285 59.7  C 132.927 59.7  126.36 53.133  126.36 44.775  C 126.36 36.417  132.927 29.85  141.285 29.85  C 149.643 29.85  156.21 36.417  156.21 44.775  C 156.21 53.133  149.643 59.7  141.285 59.7  " fill-rule="nonzero" fill="#cccccc" stroke="none" />
    <path d="M 19 180  L 19 91.45  L 70.25 51.2  L 142 100.891358024691  L 183 75.35  L 224 100.891358024691  L 224 180  L 19 180  " fill-rule="nonzero" fill="#169bd5" stroke="none" />
  </g>
</svg>