<?xml version="1.0" encoding="utf-8"?>
<svg version="1.1" xmlns:xlink="http://www.w3.org/1999/xlink" width="81px" height="81px" xmlns="http://www.w3.org/2000/svg">
  <g transform="matrix(1 0 0 1 -917 -368 )">
    <path d="M 66.814453125 42.873046875  C 67.447265625 42.240234375  67.763671875 41.44921875  67.763671875 40.5  C 67.763671875 39.55078125  67.447265625 38.759765625  66.814453125 38.126953125  L 62.015625 33.328125  L 42.92578125 14.23828125  C 42.29296875 13.60546875  41.501953125 13.2890625  40.552734375 13.2890625  C 39.603515625 13.2890625  38.8125 13.60546875  38.1796875 14.23828125  L 33.380859375 19.037109375  C 32.748046875 19.669921875  32.431640625 20.4609375  32.431640625 21.41015625  C 32.431640625 22.359375  32.748046875 23.150390625  33.380859375 23.783203125  L 43.34765625 34  L 16.875 34  C 15.9609375 33.75  15.169921875 34.083984375  14.501953125 34.751953125  C 13.833984375 35.419921875  13.5 36.2109375  13.5 37.125  L 13.5 43.875  C 13.5 44.7890625  13.833984375 45.580078125  14.501953125 46.248046875  C 15.169921875 46.916015625  15.9609375 47.25  16.875 47  L 43.34765625 47  L 33.380859375 57.216796875  C 32.712890625 57.884765625  32.37890625 58.67578125  32.37890625 59.58984375  C 32.37890625 60.50390625  32.712890625 61.294921875  33.380859375 61.962890625  L 38.1796875 66.76171875  C 38.8125 67.39453125  39.603515625 67.7109375  40.552734375 67.7109375  C 41.501953125 67.7109375  42.29296875 67.39453125  42.92578125 66.76171875  L 62.015625 47.671875  L 66.814453125 42.873046875  Z M 75.568359375 20.1708984375  C 79.189453125 26.3759765625  81 33.15234375  81 40.5  C 81 47.84765625  79.189453125 54.6240234375  75.568359375 60.8291015625  C 71.947265625 67.0341796875  67.0341796875 71.947265625  60.8291015625 75.568359375  C 54.6240234375 79.189453125  47.84765625 81  40.5 81  C 33.15234375 81  26.3759765625 79.189453125  20.1708984375 75.568359375  C 13.9658203125 71.947265625  9.052734375 67.0341796875  5.431640625 60.8291015625  C 1.810546875 54.6240234375  0 47.84765625  0 40.5  C 0 33.15234375  1.810546875 26.3759765625  5.431640625 20.1708984375  C 9.052734375 13.9658203125  13.9658203125 9.05273437499999  20.1708984375 5.431640625  C 26.3759765625 1.81054687499999  33.15234375 0  40.5 0  C 47.84765625 0  54.6240234375 1.81054687499999  60.8291015625 5.431640625  C 67.0341796875 9.05273437499999  71.947265625 13.9658203125  75.568359375 20.1708984375  Z " fill-rule="nonzero" fill="#37b5a7" stroke="none" transform="matrix(1 0 0 1 917 368 )" />
  </g>
</svg>