<?xml version="1.0" encoding="utf-8"?>
<svg version="1.1" xmlns:xlink="http://www.w3.org/1999/xlink" width="51px" height="51px" xmlns="http://www.w3.org/2000/svg">
  <g transform="matrix(1 0 0 1 -214 -866 )">
    <path d="M 34.7727272727273 25.5  C 34.7727272727273 20.3768181818182  30.6231818181818 16.2272727272727  25.5 16.2272727272727  C 20.3768181818182 16.2272727272727  16.2272727272727 20.3768181818182  16.2272727272727 25.5  C 16.2272727272727 30.6231818181818  20.3768181818182 34.7727272727273  25.5 34.7727272727273  C 30.6231818181818 34.7727272727273  34.7727272727273 30.6231818181818  34.7727272727273 25.5  Z M 51 23.1818181818182  L 46.2245454545454 23.1818181818182  C 45.1581818181818 13.515  37.485 5.84181818181818  27.8181818181818 4.77545454545455  L 27.8181818181818 0  L 23.1818181818182 0  L 23.1818181818182 4.77545454545455  C 13.515 5.84181818181818  5.84181818181818 13.515  4.77545454545455 23.1818181818182  L 0 23.1818181818182  L 0 27.8181818181818  L 4.77545454545455 27.8181818181818  C 5.84181818181818 37.485  13.515 45.1581818181818  23.1818181818182 46.2245454545455  L 23.1818181818182 51  L 27.8181818181818 51  L 27.8181818181818 46.2245454545455  C 37.485 45.1581818181818  45.1581818181818 37.485  46.2245454545455 27.8181818181818  L 51 27.8181818181818  L 51 23.1818181818182  Z M 41.7272727272727 25.5  C 41.7272727272727 34.4597727272727  34.4597727272727 41.7272727272727  25.5 41.7272727272727  C 16.5402272727273 41.7272727272727  9.27272727272727 34.4597727272727  9.27272727272727 25.5  C 9.27272727272727 16.5402272727273  16.5402272727273 9.27272727272727  25.5 9.27272727272727  C 34.4597727272727 9.27272727272727  41.7272727272727 16.5402272727273  41.7272727272727 25.5  Z " fill-rule="nonzero" fill="#37b5a7" stroke="none" transform="matrix(1 0 0 1 214 866 )" />
  </g>
</svg>