<?xml version="1.0" encoding="utf-8"?>
<svg version="1.1" xmlns:xlink="http://www.w3.org/1999/xlink" width="36px" height="36px" xmlns="http://www.w3.org/2000/svg">
  <g transform="matrix(1 0 0 1 -225 -710 )">
    <path d="M 35.9232954545455 27.8948863636364  C 35.9744318181818 28.0142045454545  36 28.1931818181818  36 28.4318181818182  C 36 28.8920454545455  35.9147727272727 29.4928977272727  35.7443181818182 30.234375  C 35.5738636363636 30.9758522727273  35.3948863636364 31.5596590909091  35.2073863636364 31.9857954545455  C 34.8494318181818 32.8380681818182  33.8096590909091 33.7414772727273  32.0880681818182 34.6960227272727  C 30.4857954545455 35.5653409090909  28.9005681818182 36  27.3323863636364 36  C 26.8721590909091 36  26.4204545454546 35.9701704545455  25.9772727272727 35.9105113636364  C 25.5340909090909 35.8508522727273  25.0440340909091 35.7443181818182  24.5071022727273 35.5909090909091  C 23.9701704545455 35.4375  23.5696022727273 35.3139204545455  23.3053977272727 35.2201704545455  C 23.0411931818182 35.1264204545455  22.5681818181818 34.9517045454545  21.8863636363636 34.6960227272727  C 21.2045454545455 34.4403409090909  20.7869318181818 34.2869318181818  20.6335227272727 34.2357954545455  C 18.9630681818182 33.6392045454545  17.4715909090909 32.9318181818182  16.1590909090909 32.1136363636364  C 13.9943181818182 30.7670454545455  11.7443181818182 28.9261363636364  9.40909090909091 26.5909090909091  C 7.07386363636364 24.2556818181818  5.23295454545455 22.0056818181818  3.88636363636364 19.8409090909091  C 3.06818181818182 18.5284090909091  2.36079545454545 17.0369318181818  1.76420454545455 15.3664772727273  C 1.71306818181818 15.2130681818182  1.55965909090909 14.7954545454545  1.30397727272727 14.1136363636364  C 1.04829545454545 13.4318181818182  0.873579545454546 12.9588068181818  0.779829545454546 12.6946022727273  C 0.686079545454545 12.4303977272727  0.5625 12.0298295454545  0.409090909090909 11.4928977272727  C 0.255681818181818 10.9559659090909  0.149147727272727 10.4659090909091  0.0894886363636364 10.0227272727273  C 0.0298295454545455 9.57954545454545  0 9.12784090909091  0 8.66761363636363  C 0 7.09943181818182  0.434659090909091 5.51420454545454  1.30397727272727 3.91193181818182  C 2.25852272727273 2.1903409090909  3.16193181818182 1.15056818181818  4.01420454545455 0.792613636363635  C 4.44034090909091 0.605113636363634  5.02414772727273 0.42613636363636  5.765625 0.255681818181817  C 6.50710227272727 0.0852272727272712  7.10795454545455 0  7.56818181818182 0  C 7.80681818181818 0  7.98579545454546 0.0255681818181825  8.10511363636364 0.0767045454545436  C 8.41193181818182 0.178977272727274  8.86363636363636 0.826704545454545  9.46022727272727 2.01988636363637  C 9.64772727272727 2.34374999999999  9.90340909090909 2.80397727272727  10.2272727272727 3.40056818181818  C 10.5511363636364 3.99715909090909  10.8494318181818 4.53835227272727  11.1221590909091 5.02414772727273  C 11.3948863636364 5.50994318181818  11.6590909090909 5.96590909090909  11.9147727272727 6.39204545454546  C 11.9659090909091 6.46022727272727  12.1150568181818 6.67329545454546  12.3622159090909 7.03125  C 12.609375 7.38920454545454  12.7926136363636 7.69176136363636  12.9119318181818 7.93892045454546  C 13.03125 8.18607954545454  13.0909090909091 8.42897727272727  13.0909090909091 8.66761363636363  C 13.0909090909091 9.00852272727272  12.8480113636364 9.43465909090909  12.3622159090909 9.94602272727273  C 11.8764204545455 10.4573863636364  11.3480113636364 10.9261363636364  10.7769886363636 11.3522727272727  C 10.2059659090909 11.7784090909091  9.67755681818182 12.2301136363636  9.19176136363636 12.7073863636364  C 8.70596590909091 13.1846590909091  8.46306818181818 13.5767045454545  8.46306818181818 13.8835227272727  C 8.46306818181818 14.0369318181818  8.50568181818182 14.2286931818182  8.59090909090909 14.4588068181818  C 8.67613636363637 14.6889204545455  8.74857954545455 14.8636363636364  8.80823863636364 14.9829545454545  C 8.86789772727273 15.1022727272727  8.98721590909091 15.3068181818182  9.16619318181818 15.5965909090909  C 9.34517045454546 15.8863636363636  9.44318181818182 16.0482954545455  9.46022727272727 16.0823863636364  C 10.7556818181818 18.4176136363636  12.2386363636364 20.4204545454545  13.9090909090909 22.0909090909091  C 15.5795454545455 23.7613636363636  17.5823863636364 25.2443181818182  19.9176136363636 26.5397727272727  C 19.9517045454545 26.5568181818182  20.1136363636364 26.6548295454545  20.4034090909091 26.8338068181818  C 20.6931818181818 27.0127840909091  20.8977272727273 27.1321022727273  21.0170454545455 27.1917613636364  C 21.1363636363636 27.2514204545455  21.3110795454545 27.3238636363636  21.5411931818182 27.4090909090909  C 21.7713068181818 27.4943181818182  21.9630681818182 27.5369318181818  22.1164772727273 27.5369318181818  C 22.4232954545455 27.5369318181818  22.8153409090909 27.2940340909091  23.2926136363636 26.8082386363636  C 23.7698863636364 26.3224431818182  24.2215909090909 25.7940340909091  24.6477272727273 25.2230113636364  C 25.0738636363636 24.6519886363636  25.5426136363636 24.1235795454545  26.0539772727273 23.6377840909091  C 26.5653409090909 23.1519886363636  26.9914772727273 22.9090909090909  27.3323863636364 22.9090909090909  C 27.5710227272727 22.9090909090909  27.8139204545455 22.96875  28.0610795454545 23.0880681818182  C 28.3082386363636 23.2073863636364  28.6107954545455 23.390625  28.96875 23.6377840909091  C 29.3267045454545 23.8849431818182  29.5397727272727 24.0340909090909  29.6079545454545 24.0852272727273  C 30.0340909090909 24.3409090909091  30.4900568181818 24.6051136363636  30.9758522727273 24.8778409090909  C 31.4616477272727 25.1505681818182  32.0028409090909 25.4488636363636  32.5994318181818 25.7727272727273  C 33.1960227272727 26.0965909090909  33.65625 26.3522727272727  33.9801136363636 26.5397727272727  C 35.1732954545455 27.1363636363636  35.8210227272727 27.5880681818182  35.9232954545455 27.8948863636364  Z " fill-rule="nonzero" fill="#37b5a7" stroke="none" transform="matrix(1 0 0 1 225 710 )" />
  </g>
</svg>