<?xml version="1.0" encoding="utf-8"?>
<svg version="1.1" xmlns:xlink="http://www.w3.org/1999/xlink" width="50px" height="50px" xmlns="http://www.w3.org/2000/svg">
  <g transform="matrix(1 0 0 1 -217 -808 )">
    <path d="M 8 19.2708333333333  L 8 41.8619791666667  L 16 41.8619791666667  L 16 19.2708333333333  L 8 19.2708333333333  Z M 14.55078125 15.087890625  C 15.33203125 14.3391927083333  15.72265625 13.4114583333333  15.72265625 12.3046875  C 15.7009548611111 11.1762152777778  15.3103298611111 10.2430555555556  14.55078125 9.50520833333333  C 13.7912326388889 8.76736111111111  12.7821180555556 8.3984375  11.5234375 8.3984375  C 10.2647569444444 8.3984375  9.23936631944445 8.76736111111111  8.447265625 9.50520833333333  C 7.65516493055556 10.2430555555556  7.25911458333333 11.1762152777778  7.25911458333333 12.3046875  C 7.25911458333333 13.4114583333333  7.64431423611111 14.3391927083333  8.41471354166667 15.087890625  C 9.18511284722222 15.8365885416667  10.1888020833333 16.2109375  11.42578125 16.2109375  L 11.4583333333333 16.2109375  C 12.7387152777778 16.2109375  13.76953125 15.8365885416667  14.55078125 15.087890625  Z M 34 29.78515625  L 34 41.8619791666667  L 42 41.8619791666667  L 42 28.90625  C 42.28515625 25.5642361111111  41.4930555555556 23.0360243055556  39.9088541666667 21.3216145833333  C 38.3246527777778 19.6072048611111  36.23046875 18.75  33.6263020833333 18.75  C 30.6749131944444 18.75  28.4071180555556 20.01953125  26.8229166666667 22.55859375  L 26.8880208333333 22.55859375  L 26.8880208333333 19.2708333333333  L 19.3684895833333 19.2708333333333  C 19.43359375 20.703125  19.43359375 28.2335069444444  19.3684895833333 41.8619791666667  L 26 41.8619791666667  L 26 29.2317708333333  C 26.8880208333333 28.4071180555556  26.9639756944444 27.7994791666667  27.1158854166667 27.4088541666667  C 27.44140625 26.6493055555556  27.9296875 26.0036892361111  28.5807291666667 25.4720052083333  C 29.2317708333333 24.9403211805556  30.0347222222222 24.6744791666667  30.9895833333333 24.6744791666667  C 33.5069444444445 24.6744791666667  34.765625 26.3780381944444  34 29.78515625  Z M 47.2493489583333 2.75065104166667  C 49.0831163194444 4.58441840277777  50 6.79253472222222  50 9.375  L 50 40.625  C 50 43.2074652777778  49.0831163194444 45.4155815972222  47.2493489583333 47.2493489583333  C 45.4155815972222 49.0831163194444  43.2074652777778 50  40.625 50  L 9.375 50  C 6.79253472222222 50  4.58441840277778 49.0831163194444  2.75065104166667 47.2493489583333  C 0.916883680555555 45.4155815972222  0 43.2074652777778  0 40.625  L 0 9.375  C 0 6.79253472222222  0.916883680555555 4.58441840277777  2.75065104166667 2.75065104166667  C 4.58441840277778 0.916883680555552  6.79253472222222 0  9.375 0  L 40.625 0  C 43.2074652777778 0  45.4155815972222 0.916883680555552  47.2493489583333 2.75065104166667  Z " fill-rule="nonzero" fill="#37b5a7" stroke="none" transform="matrix(1 0 0 1 217 808 )" />
  </g>
</svg>